<?xml version="1.0" encoding="utf-8"?>
<!-- Generator: Adobe Illustrator 19.0.0, SVG Export Plug-In . SVG Version: 6.00 Build 0)  -->
<svg xmlns="http://www.w3.org/2000/svg" xmlns:xlink="http://www.w3.org/1999/xlink" version="1.1" id="Layer_1" x="0px" y="0px" viewBox="0 2 98 98" style="enable-background:new 0 2 98 98;" xml:space="preserve" width="512" height="512">
<style type="text/css">
	.st0{fill:url(#SVGID_1_);}
</style>
<linearGradient id="SVGID_1_" gradientUnits="userSpaceOnUse" x1="49" y1="33.7998" x2="49" y2="68.2002">
	<stop offset="0" style="stop-color:#00EFD1"/>
	<stop offset="1" style="stop-color:#00ACEA"/>
</linearGradient>
<path class="st0" d="M95.4,47.7h-7.8c-1.5-7.9-8.5-13.9-16.9-13.9c-7.1,0-13.1,4.3-15.8,10.4c-1.8-1.1-3.8-1.8-5.9-1.8  c-2.2,0-4.3,0.7-6.2,1.9c-2.6-6.2-8.7-10.5-15.8-10.5c-8.4,0-15.3,6-16.9,13.9H2.6v6H10c1.3,8.2,8.4,14.5,17,14.5  c9.4,0,17-7.5,17.2-16.9c1.2-1.9,2.9-2.9,4.8-2.9c1.7,0,3.3,0.9,4.5,2.6c0,0,0,0,0,0c0,9.5,7.7,17.2,17.2,17.2  c8.6,0,15.7-6.3,17-14.5h7.7V47.7z M27,62.2c-6.2,0-11.2-5-11.2-11.2s5-11.2,11.2-11.2s11.2,5,11.2,11.2S33.2,62.2,27,62.2z   M70.7,62.2c-6.2,0-11.2-5-11.2-11.2s5-11.2,11.2-11.2s11.2,5,11.2,11.2S76.9,62.2,70.7,62.2z"/>
</svg>
