<?xml version="1.0" encoding="UTF-8"?><svg xmlns="http://www.w3.org/2000/svg" xmlns:xlink="http://www.w3.org/1999/xlink" height="248.5" preserveAspectRatio="xMidYMid meet" version="1.0" viewBox="68.2 88.4 288.8 248.5" width="288.8" zoomAndPan="magnify"><g id="change1_1"><path d="M209.82,336.056l0.221,0.105c1.609,0.761,3.494,0.766,5.107,0.013 c28.926-13.508,52.233-27.372,70.954-41.256c28.074-20.821,45.841-41.726,56.561-61.463c10.728-19.727,14.337-38.245,14.329-53.927 c-0.002-15-3.257-27.401-6.528-36.091c-3.273-8.693-6.565-13.699-6.757-13.992l-5.001,3.319l5.036-3.265 c-9.684-14.936-19.994-25.22-30.636-31.776c-10.628-6.562-21.568-9.286-31.931-9.271c-10.377,0.001-20.139,2.65-28.891,6.492 c-13.129,5.777-24.082,14.234-31.855,21.245c-7.766,7.016-12.331,12.615-12.473,12.785c-2.094,2.569-1.707,6.349,0.863,8.442 c2.57,2.091,6.348,1.705,8.441-0.864l-1.662-1.354l1.658,1.357l0.004-0.003l-1.662-1.354l1.658,1.357 c0.047-0.065,7.678-9.342,19.557-18.403c5.936-4.534,12.922-9.007,20.475-12.299c7.557-3.296,15.643-5.403,23.887-5.402 c8.314,0.016,16.828,2.082,25.638,7.49c8.796,5.417,17.912,14.288,26.858,28.086l0.034,0.054l2.55-1.691l-2.559,1.676l0.009,0.015 l2.55-1.691l-2.559,1.676c0,0.001,0.176,0.269,0.486,0.795c1.09,1.84,3.809,6.813,6.238,14.168c2.43,7.358,4.569,17.085,4.569,28.5 c-0.002,9.246-1.396,19.602-5.204,30.8c-5.717,16.788-16.864,35.532-37.242,55.138c-20.374,19.593-50,40.002-92.475,59.835 l2.539,5.437l2.567-5.424l-0.222-0.104c-2.994-1.418-6.571-0.138-7.989,2.856s-0.14,6.571,2.856,7.989H209.82" fill="#F4AECE"/></g><g id="change1_2"><path d="M88.895,134.367L88.895,134.367 M143.938,88.462c-10.339,0-21.248,2.727-31.847,9.271 c-10.626,6.549-20.927,16.816-30.597,31.723l-0.001,0c-0.192,0.293-3.484,5.299-6.757,13.994c-3.271,8.69-6.528,21.089-6.53,36.089 c0,10.456,1.592,22.169,5.845,34.665c6.37,18.751,18.723,39.199,40.287,59.923c21.568,20.736,52.326,41.797,95.714,62.061 c0.802,0.375,1.67,0.562,2.538,0.562c0.875,0,1.751-0.191,2.56-0.572l0.222-0.105c0.027-0.013,0.055-0.026,0.082-0.039 c-0.104,0.048-0.203,0.094-0.305,0.142c-0.802,0.375-1.67,0.561-2.539,0.561c-0.879,0-1.759-0.191-2.568-0.574l-0.221-0.105h0.002 c-2.996-1.418-4.274-4.995-2.856-7.989c0.854-1.802,2.488-2.983,4.308-3.329c0.441-0.207,0.877-0.413,1.315-0.62 c-27.13-12.838-48.924-25.905-66.343-38.827c-26.945-19.989-43.409-39.594-53.166-57.552c-9.75-17.968-12.863-34.33-12.873-48.201 c0-13.25,2.887-24.232,5.758-31.862c1.435-3.813,2.865-6.783,3.913-8.763c0.522-0.989,0.95-1.732,1.235-2.208 c0.144-0.24,0.25-0.41,0.316-0.513l0.063-0.103l0.009-0.013v0l0.025-0.039c8.946-13.798,18.063-22.669,26.858-28.086 c8.81-5.409,17.321-7.475,25.639-7.488c0.006,0,0.014,0,0.02,0c8.299,0,16.439,2.139,24.042,5.479 c11.41,4.998,21.501,12.703,28.641,19.161c3.57,3.226,6.41,6.134,8.338,8.214c0.965,1.038,1.7,1.872,2.187,2.434 c0.243,0.28,0.424,0.495,0.538,0.631l0.125,0.15l0.024,0.028h-0.001l0,0c1.188,1.456,2.916,2.211,4.658,2.211 c1.023,0,2.051-0.26,2.978-0.792c-0.911,0.518-1.937,0.782-2.968,0.782c-1.332,0-2.672-0.441-3.785-1.347 c-2.57-2.093-2.957-5.873-0.863-8.442c0.084-0.101,1.715-2.1,4.639-5.167c-3.67-3.849-9.375-9.376-16.625-14.948 c-6.521-5.007-14.303-10.058-23.059-13.905c-8.751-3.84-18.513-6.491-28.888-6.492C143.996,88.462,143.967,88.462,143.938,88.462" fill="#F4AECE"/></g><g id="change2_1"><path d="M212.589,324.118c-0.438,0.207-0.874,0.413-1.315,0.62c-1.819,0.346-3.454,1.527-4.308,3.329 c-1.418,2.995-0.14,6.571,2.856,7.989h-0.002l0.221,0.105c0.81,0.383,1.689,0.574,2.568,0.574c0.869,0,1.737-0.187,2.539-0.561 c0.102-0.048,0.201-0.094,0.305-0.142c2.938-1.439,4.186-4.977,2.787-7.945c-0.852-1.808-2.49-2.992-4.313-3.338 C213.48,324.539,213.033,324.328,212.589,324.118 M215.6,135.198L215.6,135.198 M212.596,123.807 c-2.924,3.067-4.555,5.066-4.639,5.167c-2.094,2.569-1.707,6.349,0.863,8.442c1.113,0.906,2.453,1.347,3.785,1.347 c1.031,0,2.057-0.264,2.968-0.782c0.279-0.161,0.55-0.345,0.808-0.555c2.568-2.093,2.955-5.873,0.861-8.442 C217.157,128.883,215.524,126.879,212.596,123.807" fill="#EE74AA"/></g></svg>