<?xml version="1.0" encoding="iso-8859-1"?>
<!-- Generator: Adobe Illustrator 19.0.0, SVG Export Plug-In . SVG Version: 6.00 Build 0)  -->
<svg version="1.1" id="Capa_1" xmlns="http://www.w3.org/2000/svg" xmlns:xlink="http://www.w3.org/1999/xlink" x="0px" y="0px"
	 viewBox="0 0 480 480" style="enable-background:new 0 0 480 480;" xml:space="preserve">
<g>
	
		<linearGradient id="SVGID_1_" gradientUnits="userSpaceOnUse" x1="-26.871" y1="558.668" x2="-26.871" y2="621.471" gradientTransform="matrix(8 0 0 -8 455 4941)">
		<stop  offset="0" style="stop-color:#006DF0"/>
		<stop  offset="1" style="stop-color:#00E7F0"/>
	</linearGradient>
	<path style="fill:url(#SVGID_1_);" d="M152.4,128h32.24c3.985-0.001,7.362-2.934,7.92-6.88c3.768-26.2,28.062-44.386,54.262-40.618
		c21.052,3.027,37.591,19.566,40.618,40.618c0.558,3.946,3.935,6.879,7.92,6.88h32.24c4.418,0.018,8.014-3.55,8.032-7.968
		c0.001-0.248-0.01-0.497-0.032-0.744c-5.024-52.781-51.884-91.495-104.665-86.471c-45.828,4.362-82.109,40.643-86.471,86.471
		c-0.393,4.401,2.855,8.287,7.256,8.68c0.247,0.022,0.496,0.033,0.744,0.032H152.4z M181.728,73.048l4.616,4.608
		c3.178,3.069,8.243,2.981,11.312-0.197c2.994-3.1,2.994-8.015,0-11.115l-3.832-3.832C205.116,54.59,218.269,49.733,232,48.416V56
		c0,4.418,3.582,8,8,8c4.418,0,8-3.582,8-8v-7.584c13.731,1.317,26.884,6.174,38.176,14.096l-3.832,3.832
		c-3.178,3.069-3.266,8.134-0.196,11.312c3.07,3.178,8.134,3.266,11.312,0.196c0.067-0.064,0.132-0.13,0.196-0.196l4.616-4.608
		C308.511,83.881,315.487,97.381,318.4,112h-16.488c-8.797-34.193-43.647-54.781-77.84-45.984
		C201.51,71.82,183.892,89.438,178.088,112H161.6C164.513,97.381,171.489,83.881,181.728,73.048L181.728,73.048z"/>
	
		<linearGradient id="SVGID_2_" gradientUnits="userSpaceOnUse" x1="-26.875" y1="558.668" x2="-26.875" y2="621.471" gradientTransform="matrix(8 0 0 -8 455 4941)">
		<stop  offset="0" style="stop-color:#006DF0"/>
		<stop  offset="1" style="stop-color:#00E7F0"/>
	</linearGradient>
	<path style="fill:url(#SVGID_2_);" d="M408,0H72C32.254,0.044,0.044,32.254,0,72v336c0.044,39.746,32.254,71.956,72,72h336
		c39.746-0.044,71.956-32.254,72-72V72C479.956,32.254,447.746,0.044,408,0z M72,16h336c30.913,0.035,55.965,25.087,56,56v72H16V72
		C16.035,41.087,41.087,16.035,72,16z M408,464H72c-30.913-0.035-55.965-25.087-56-56V160h448v248
		C463.965,438.913,438.913,463.965,408,464z"/>
	
		<linearGradient id="SVGID_3_" gradientUnits="userSpaceOnUse" x1="-26.875" y1="558.668" x2="-26.875" y2="621.471" gradientTransform="matrix(8 0 0 -8 455 4941)">
		<stop  offset="0" style="stop-color:#006DF0"/>
		<stop  offset="1" style="stop-color:#00E7F0"/>
	</linearGradient>
	<path style="fill:url(#SVGID_3_);" d="M240,232c-4.418,0-8,3.582-8,8v192c0,4.418,3.582,8,8,8s8-3.582,8-8V240
		C248,235.582,244.418,232,240,232z"/>
</g>
<linearGradient id="SVGID_4_" gradientUnits="userSpaceOnUse" x1="-20.875" y1="558.668" x2="-20.875" y2="621.471" gradientTransform="matrix(8 0 0 -8 455 4941)">
	<stop  offset="0" style="stop-color:#006DF0"/>
	<stop  offset="1" style="stop-color:#00E7F0"/>
</linearGradient>
<path style="fill:url(#SVGID_4_);" d="M296,192h-16c-4.418,0-8,3.582-8,8s3.582,8,8,8h16c4.418,0,8-3.582,8-8S300.418,192,296,192z"
	/>
<linearGradient id="SVGID_5_" gradientUnits="userSpaceOnUse" x1="-26.875" y1="558.668" x2="-26.875" y2="621.471" gradientTransform="matrix(8 0 0 -8 455 4941)">
	<stop  offset="0" style="stop-color:#006DF0"/>
	<stop  offset="1" style="stop-color:#00E7F0"/>
</linearGradient>
<path style="fill:url(#SVGID_5_);" d="M248,192h-16c-4.418,0-8,3.582-8,8s3.582,8,8,8h16c4.418,0,8-3.582,8-8S252.418,192,248,192z"
	/>
<linearGradient id="SVGID_6_" gradientUnits="userSpaceOnUse" x1="-32.875" y1="558.668" x2="-32.875" y2="621.471" gradientTransform="matrix(8 0 0 -8 455 4941)">
	<stop  offset="0" style="stop-color:#006DF0"/>
	<stop  offset="1" style="stop-color:#00E7F0"/>
</linearGradient>
<path style="fill:url(#SVGID_6_);" d="M200,192h-16c-4.418,0-8,3.582-8,8s3.582,8,8,8h16c4.418,0,8-3.582,8-8S204.418,192,200,192z"
	/>
<g>
</g>
<g>
</g>
<g>
</g>
<g>
</g>
<g>
</g>
<g>
</g>
<g>
</g>
<g>
</g>
<g>
</g>
<g>
</g>
<g>
</g>
<g>
</g>
<g>
</g>
<g>
</g>
<g>
</g>
</svg>
